<mxfile host="app.diagrams.net" modified="2023-04-16T12:32:29.487Z" agent="Mozilla/5.0 (Windows NT 10.0; Win64; x64) AppleWebKit/537.36 (KHTML, like Gecko) Chrome/110.0.0.0 Safari/537.36 Edg/110.0.1587.50" version="21.1.8" etag="0SowpRM4nEk1-fdOA-r9" type="github">
  <diagram name="第 1 页" id="j3QQ6AwVxePccXOu--cY">
    <mxGraphModel>
      <root>
        <mxCell id="0" />
        <mxCell id="1" parent="0" />
      </root>
    </mxGraphModel>
  </diagram>
</mxfile>
